<svg width="100" height="100" viewBox="0 0 100 100" fill="none" xmlns="http://www.w3.org/2000/svg">
<path d="M66.9429 38.8157V39.8253C66.8681 40.9471 66.6437 41.9754 66.2698 42.9103L66.1015 43.359C65.5032 44.6678 64.6992 45.8831 63.6896 47.0049C63.6522 47.0423 63.6148 47.0984 63.5774 47.1732C63.54 47.2106 63.5026 47.248 63.4652 47.2854C63.3157 47.4349 63.2222 47.5471 63.1848 47.6219L62.68 48.1267C62.5678 48.2389 62.3995 48.4072 62.1752 48.6315C61.9882 48.8559 61.8012 49.0616 61.6143 49.2485C61.1281 49.772 60.5859 50.389 59.9876 51.0995C59.3893 51.7726 58.7723 52.4644 58.1366 53.1749C58.0992 53.2123 58.0618 53.2497 58.0244 53.2871C58.0244 53.3244 58.0058 53.3805 57.9684 53.4553C57.8562 53.6049 57.744 53.7358 57.6318 53.848C57.5196 53.9601 57.4075 54.0723 57.2953 54.1845C57.3701 54.1097 57.3327 54.1471 57.1831 54.2967C57.0709 54.4463 57.0335 54.5023 57.0709 54.465C56.9961 54.5023 56.9213 54.5958 56.8465 54.7454C56.8092 54.7828 56.7718 54.8576 56.7344 54.9698C56.7344 55.0446 56.697 55.0633 56.6222 55.0259C56.5848 54.9885 56.5474 54.9511 56.51 54.9137C56.51 54.8763 56.4913 54.8389 56.4539 54.8015C56.4539 54.6145 56.4165 54.5397 56.3417 54.5771C56.3043 54.5771 56.2856 54.5771 56.2856 54.5771C56.2482 54.5771 56.2295 54.5958 56.2295 54.6332C56.2295 54.6332 56.2109 54.6332 56.1735 54.6332C56.1361 54.708 56.0987 54.8015 56.0613 54.9137C56.0613 55.0259 56.0239 55.1193 55.9491 55.1941C55.9117 55.2315 55.8743 55.2128 55.8369 55.138C55.8369 55.0259 55.7995 54.9698 55.7247 54.9698C55.6499 54.9324 55.5752 54.9511 55.5004 55.0259C55.4256 55.1006 55.3508 55.1567 55.276 55.1941C55.1264 55.3063 54.9395 55.3998 54.7151 55.4746C54.4907 55.512 54.2851 55.5494 54.0981 55.5868C53.9111 55.6242 53.7055 55.6242 53.4811 55.5868C53.2941 55.512 53.1072 55.4559 52.9202 55.4185C52.808 55.3437 52.6958 55.2876 52.5837 55.2502C52.4715 55.1754 52.3406 55.1193 52.191 55.0819C52.0415 55.0072 51.8358 55.0072 51.574 55.0819C51.3497 55.1567 51.144 55.1941 50.957 55.1941C50.6579 55.1567 50.34 55.1006 50.0035 55.0259C49.7043 54.9511 49.3865 54.895 49.05 54.8576C48.8256 54.8576 48.6012 54.9137 48.3769 55.0259C48.1899 55.1006 47.9655 55.1567 47.7038 55.1941C47.5542 55.1941 47.3859 55.1941 47.199 55.1941C47.0494 55.1567 46.8811 55.1193 46.6941 55.0819C46.2454 55.0072 45.8154 54.9324 45.4041 54.8576C44.9927 54.7828 44.6001 54.6332 44.2262 54.4089C43.6279 54.2593 43.3287 53.9227 43.3287 53.3992C43.3287 53.2123 43.3474 53.0627 43.3848 52.9505C43.3848 52.9131 43.3848 52.8944 43.3848 52.8944C43.4222 52.857 43.4409 52.8196 43.4409 52.7822C43.5157 52.4831 43.6279 52.1839 43.7774 51.8848C43.927 51.5482 44.0766 51.2678 44.2262 51.0434L44.731 50.2582C45.4415 49.2485 46.2641 48.295 47.199 47.3975C48.1338 46.5001 49.0313 45.64 49.8913 44.8174C50.0783 44.6304 50.2466 44.4434 50.3961 44.2565C50.5831 44.0695 50.7514 43.9012 50.9009 43.7516C51.0131 43.6021 51.1253 43.4712 51.2375 43.359C51.3497 43.2094 51.4432 43.0599 51.5179 42.9103C51.7797 42.499 51.948 42.1811 52.0228 41.9567C52.0975 41.695 52.0975 41.3771 52.0228 41.0032C51.9854 40.891 51.9293 40.7601 51.8545 40.6106C51.8171 40.5732 51.761 40.4797 51.6862 40.3301L51.6301 40.274C51.5179 40.1618 51.3871 40.0684 51.2375 39.9936C51.1627 39.9936 51.0318 40.1058 50.8449 40.3301C50.6579 40.5919 50.4896 40.8723 50.34 41.1715C50.1905 41.4332 49.9661 41.6576 49.6669 41.8446C49.3678 41.9941 49.106 41.9194 48.8817 41.6202C48.6573 41.3211 48.4517 41.078 48.2647 40.891L47.816 40.4423L47.5355 40.7788C47.4233 40.891 47.3298 41.0406 47.2551 41.2276C47.2177 41.2276 47.199 41.2463 47.199 41.2837C47.1616 41.3211 47.1429 41.3584 47.1429 41.3958C47.1429 41.4332 47.1242 41.4519 47.0868 41.4519C47.0868 41.4519 47.0868 41.4706 47.0868 41.508C46.9372 41.7698 46.7876 42.0315 46.6381 42.2933C46.4885 42.555 46.2641 42.7794 45.965 42.9664C45.8528 43.1533 45.7406 43.3777 45.6284 43.6395C45.5536 43.8638 45.3854 44.0321 45.1236 44.1443C44.8619 44.2565 44.6188 44.1817 44.3944 43.9199C44.2075 43.6208 44.0018 43.4525 43.7774 43.4151C43.7026 43.4151 43.6279 43.4338 43.5531 43.4712C43.5157 43.4712 43.4783 43.4712 43.4409 43.4712C43.4035 43.4338 43.3661 43.4338 43.3287 43.4712C43.2539 43.9199 43.2165 44.1817 43.2165 44.2565C43.1791 44.2939 43.1604 44.3499 43.1604 44.4247C43.1604 44.4621 43.123 44.4995 43.0483 44.5369C43.0109 44.5369 42.9735 44.5369 42.9361 44.5369C42.9361 44.4995 42.9174 44.4808 42.88 44.4808C42.7678 44.5182 42.7117 44.593 42.7117 44.7052C42.7117 44.78 42.6182 44.7987 42.4313 44.7613C42.2817 44.6865 42.1508 44.5743 42.0386 44.4247C41.9638 44.2752 41.8704 44.163 41.7582 44.0882C41.7582 44.0882 41.7021 44.0508 41.5899 43.976C41.5151 43.9012 41.459 43.8451 41.4216 43.8077C41.3842 43.8077 41.3655 43.8077 41.3655 43.8077C41.3655 43.7703 41.3655 43.7516 41.3655 43.7516C41.3281 43.7516 41.3094 43.7516 41.3094 43.7516C41.3094 43.7143 41.2907 43.6956 41.2534 43.6956C41.216 43.7703 41.1973 43.8638 41.1973 43.976C41.1973 44.0882 41.1786 44.2004 41.1412 44.3126C41.1038 44.3499 41.0664 44.3499 41.029 44.3126C40.9916 44.2752 40.9542 44.2565 40.9168 44.2565C40.8794 44.2191 40.842 44.1817 40.8046 44.1443C40.7672 44.1069 40.7298 44.0695 40.6924 44.0321C40.6177 43.9573 40.5429 43.8451 40.4681 43.6956C40.3559 43.8825 40.2063 43.976 40.0194 43.976C39.9072 43.976 39.795 43.9386 39.6828 43.8638C39.5706 43.7516 39.4772 43.6582 39.4024 43.5834C39.4024 43.5834 39.4024 43.6021 39.4024 43.6395C39.4024 43.6395 39.3837 43.6395 39.3463 43.6395C39.3463 43.6769 39.2528 43.6956 39.0658 43.6956C38.9162 43.6956 38.8041 43.6769 38.7293 43.6395L38.4488 43.8077C38.4114 43.8825 38.374 43.9573 38.3366 44.0321C38.3366 44.1069 38.2992 44.1817 38.2245 44.2565C38.1871 44.2939 38.1497 44.3686 38.1123 44.4808C38.1123 44.593 38.0749 44.6304 38.0001 44.593C37.9253 44.5182 37.8879 44.3873 37.8879 44.2004C37.8879 43.976 37.8505 43.9012 37.7757 43.976C37.6636 44.1256 37.6449 44.3686 37.7196 44.7052C37.7944 45.0043 37.7383 45.1352 37.5514 45.0978C37.4018 45.0978 37.3457 44.9856 37.3831 44.7613C37.4205 44.5369 37.4205 44.3126 37.3831 44.0882C37.2709 44.3873 37.1213 44.7052 36.9344 45.0417C36.8596 45.1165 36.7848 45.2287 36.71 45.3783C36.6726 45.4157 36.6165 45.4905 36.5417 45.6026C36.5043 45.6774 36.4857 45.6961 36.4857 45.6587C36.4483 45.4344 36.4109 45.21 36.3735 44.9856C36.3735 44.7613 36.3548 44.5369 36.3174 44.3126C36.3174 44.3499 36.2987 44.3686 36.2613 44.3686C36.1117 44.3686 36.0369 44.3686 36.0369 44.3686C35.9621 44.5182 35.9247 44.7052 35.9247 44.9295C35.9621 45.1165 35.9247 45.2474 35.8126 45.3222C35.7752 45.3222 35.6817 45.1352 35.5321 44.7613C35.4199 44.3499 35.3264 44.1256 35.2517 44.0882C35.2143 44.0882 35.1956 44.1443 35.1956 44.2565C35.1956 44.3312 35.1582 44.406 35.0834 44.4808C34.9338 44.6678 34.8029 44.7052 34.6908 44.593C34.5786 44.4808 34.4851 44.3686 34.4103 44.2565C34.3729 44.1069 34.3168 43.9573 34.242 43.8077C34.1672 43.8077 34.1111 43.7703 34.0738 43.6956C34.0738 43.5834 34.0551 43.5086 34.0177 43.4712C33.9055 43.359 33.812 43.2281 33.7372 43.0786C33.625 42.929 33.5315 42.8168 33.4568 42.742C33.382 42.6298 33.3072 42.499 33.2324 42.3494C33.0454 41.9754 33.008 41.3771 33.1202 40.5545C33.1202 40.4797 33.1389 40.4236 33.1763 40.3862C33.2137 40.1992 33.2511 40.0123 33.2885 39.8253C33.3259 39.6009 33.3633 39.3953 33.4007 39.2083C33.5128 38.797 33.6437 38.3856 33.7933 37.9743C33.9803 37.563 34.1672 37.1703 34.3542 36.7964C34.5412 36.4599 34.7281 36.142 34.9151 35.8429C35.1395 35.5063 35.3825 35.1885 35.6443 34.8893C35.7191 34.8145 35.7752 34.7398 35.8126 34.665C35.85 34.5902 35.906 34.5341 35.9808 34.4967C37.4018 32.8888 39.3463 31.5426 41.8143 30.4582C44.3196 29.3364 47.442 28.7755 51.1814 28.7755H52.5276C52.9015 28.8128 53.2567 28.8502 53.5933 28.8876C53.9298 28.8876 54.2664 28.9063 54.6029 28.9437C54.7899 28.9811 54.9956 28.9998 55.2199 28.9998C55.4443 28.9998 55.6499 29.0372 55.8369 29.112L56.7344 29.2803C57.2579 29.3551 57.6318 29.4298 57.8562 29.5046C58.1179 29.5794 58.3984 29.6729 58.6975 29.7851C60.7916 30.4208 62.4182 31.2808 63.5774 32.3653C64.7366 33.4123 65.578 34.4967 66.1015 35.6185C66.1763 35.6933 66.2324 35.8055 66.2698 35.9551C66.3072 36.0672 66.3446 36.1794 66.382 36.2916L66.4941 36.572L66.6624 37.189C66.6998 37.2264 66.7185 37.2825 66.7185 37.3573C66.7185 37.3947 66.7372 37.4508 66.7746 37.5256C66.7746 37.6752 66.7933 37.806 66.8307 37.9182C66.8307 37.8434 66.8307 37.8995 66.8307 38.0865C66.8681 38.2361 66.8868 38.3669 66.8868 38.4791C66.9242 38.5539 66.9429 38.6661 66.9429 38.8157ZM56.7344 66.9732V67.2536C56.6596 67.6276 56.5287 67.908 56.3417 68.095C56.3043 68.1324 56.2669 68.1698 56.2295 68.2072C56.1922 68.2445 56.1361 68.3006 56.0613 68.3754C56.0239 68.4128 55.9865 68.4502 55.9491 68.4876C55.9117 68.4876 55.8743 68.5063 55.8369 68.5437C55.7995 68.5811 55.7808 68.6372 55.7808 68.712C55.7808 68.7868 55.7434 68.8615 55.6686 68.9363L55.2199 69.946C55.1451 69.8712 55.1077 69.7029 55.1077 69.4411C55.0329 69.5907 54.9769 69.759 54.9395 69.946C54.9021 70.1329 54.846 70.3199 54.7712 70.5069C54.659 70.8808 54.5281 71.2547 54.3786 71.6287C54.2664 72.0026 54.1168 72.3953 53.9298 72.8066C53.8177 72.9562 53.7055 73.1244 53.5933 73.3114C53.5185 73.5358 53.3876 73.7414 53.2007 73.9284C53.0511 74.078 52.9763 74.1154 52.9763 74.0406C52.9015 73.4423 52.8641 72.844 52.8641 72.2457C52.8641 71.6474 52.8267 71.0491 52.7519 70.4508C52.7519 70.376 52.7145 70.3386 52.6398 70.3386C52.6024 70.376 52.565 70.376 52.5276 70.3386C52.4528 70.3012 52.378 70.2451 52.3032 70.1703C52.2284 70.1329 52.1536 70.0955 52.0788 70.0581C51.9293 70.0581 51.8545 70.0581 51.8545 70.0581C51.8171 70.8808 51.7797 71.853 51.7423 72.9749C51.7423 74.1341 51.7049 75.1437 51.6301 76.0037C51.6301 76.0411 51.5553 76.0598 51.4058 76.0598C51.3684 76.0598 51.2562 76.0411 51.0692 76.0037C50.8822 76.0037 50.7701 75.9664 50.7327 75.8916C50.6953 75.0315 50.6579 74.0406 50.6205 72.9188C50.6205 71.797 50.5831 70.8247 50.5083 70.0021C50.5083 70.0021 50.4335 70.0021 50.2839 70.0021C50.2466 69.9647 50.2092 69.946 50.1718 69.946C50.1344 70.0208 50.0596 70.1142 49.9474 70.2264C49.7978 70.4882 49.6296 70.6751 49.4426 70.7873C49.1808 71.3482 49.0686 72.0774 49.106 72.9749C49.1434 73.8723 49.1808 74.695 49.2182 75.4428C49.293 76.2281 49.1995 76.7516 48.9378 77.0134C48.676 77.3125 48.5077 77.2938 48.433 76.9573C48.3956 76.6581 48.4143 76.1907 48.489 75.555C48.5638 74.9567 48.6386 74.321 48.7134 73.6479C48.7882 73.0122 48.7882 72.5074 48.7134 72.1335C48.676 71.9091 48.6386 71.9465 48.6012 72.2457C48.6012 72.5822 48.6012 72.9749 48.6012 73.4236C48.6012 73.9097 48.6012 74.3023 48.6012 74.6015C48.6012 74.938 48.5638 74.9941 48.489 74.7698C48.3021 74.0967 48.2273 73.4049 48.2647 72.6944C48.3395 71.9839 48.3395 71.2734 48.2647 70.563L47.9842 70.2825C47.9468 70.2825 47.9281 70.2638 47.9281 70.2264C47.9281 70.2264 47.9094 70.2264 47.872 70.2264C47.7599 70.1142 47.6477 70.0021 47.5355 69.8899C47.4607 69.7777 47.3859 69.6655 47.3111 69.5533C47.2364 69.4785 47.1616 69.4038 47.0868 69.329C47.012 69.2542 46.9372 69.1981 46.8624 69.1607C46.8624 69.1607 46.8063 69.1046 46.6941 68.9924C46.582 68.9176 46.5072 68.8802 46.4698 68.8802C46.4324 68.8802 46.395 68.8989 46.3576 68.9363C46.3576 69.0111 46.3389 69.0672 46.3015 69.1046C46.2641 69.142 46.208 69.1607 46.1332 69.1607C46.0958 69.1981 46.0771 69.2355 46.0771 69.2729C46.0024 69.8338 45.965 70.3947 45.965 70.9556C45.965 71.5539 45.9276 72.1335 45.8528 72.6944C45.8528 72.8814 45.778 72.9375 45.6284 72.8627C45.5162 72.8253 45.4041 72.6383 45.2919 72.3018C45.2171 72.0026 45.1797 71.853 45.1797 71.853C45.1423 71.4043 45.1049 70.9369 45.0675 70.4508C45.0675 70.0021 45.0301 69.5346 44.9553 69.0485C44.9553 69.0111 44.9366 68.9737 44.8992 68.9363C44.8992 68.9363 44.8992 68.9176 44.8992 68.8802C44.7871 68.7681 44.7123 68.6933 44.6749 68.6559C44.5253 68.5063 44.5253 68.4876 44.6749 68.5998C44.8245 68.7494 44.7497 68.7307 44.4505 68.5437C44.3009 68.4689 44.1701 68.3941 44.0579 68.3193C43.6466 68.0202 43.4409 67.6089 43.4409 67.0853V62.7103C43.4409 62.0746 43.4409 61.4576 43.4409 60.8593C43.4409 60.2236 43.4222 59.6066 43.3848 59.0083V58.4474C43.3848 57.9987 43.497 57.606 43.7213 57.2695C43.7587 57.1947 43.7961 57.1386 43.8335 57.1012C43.9083 57.0638 43.9644 57.0264 44.0018 56.989C44.1514 56.8395 44.3757 56.7273 44.6749 56.6525C45.0114 56.5777 45.3667 56.559 45.7406 56.5964C46.1145 56.6338 46.4511 56.6525 46.7502 56.6525H53.5372C53.7616 56.6525 54.0233 56.6525 54.3225 56.6525C54.6216 56.6151 54.9021 56.6151 55.1638 56.6525C55.4256 56.6525 55.6126 56.6712 55.7247 56.7086C56.0613 56.8582 56.323 57.0825 56.51 57.3817C56.6596 57.5312 56.7344 57.6995 56.7344 57.8865C56.7344 58.0734 56.7344 58.2043 56.7344 58.2791C56.7718 58.5409 56.7718 58.8026 56.7344 59.0644C56.7344 59.3261 56.7344 59.5692 56.7344 59.7936V65.0661C56.7344 65.3278 56.7531 65.627 56.7905 65.9635C56.8278 66.3001 56.8092 66.6366 56.7344 66.9732Z" fill="#EE9430"/>
</svg>
